<?xml version="1.0" encoding="UTF-8" standalone="no"?>
<!-- Created with Inkscape (http://www.inkscape.org/) -->

<svg
   xmlns:dc="http://purl.org/dc/elements/1.1/"
   xmlns:cc="http://creativecommons.org/ns#"
   xmlns:rdf="http://www.w3.org/1999/02/22-rdf-syntax-ns#"
   xmlns:svg="http://www.w3.org/2000/svg"
   xmlns="http://www.w3.org/2000/svg"
   xmlns:xlink="http://www.w3.org/1999/xlink"
   xmlns:sodipodi="http://sodipodi.sourceforge.net/DTD/sodipodi-0.dtd"
   xmlns:inkscape="http://www.inkscape.org/namespaces/inkscape"
   width="201.69383mm"
   height="76.031387mm"
   viewBox="0 0 714.66319 269.40255"
   id="svg4576"
   version="1.1"
   inkscape:version="0.91 r13725"
   sodipodi:docname="logo.svg">
  <defs
     id="defs4578">
    <linearGradient
       gradientTransform="translate(9.5092314,-574.55717)"
       inkscape:collect="always"
       xlink:href="#linearGradient3492"
       id="linearGradient3498"
       x1="117.14286"
       y1="643.79077"
       x2="117.14286"
       y2="943.79077"
       gradientUnits="userSpaceOnUse" />
    <linearGradient
       inkscape:collect="always"
       id="linearGradient3492">
      <stop
         style="stop-color:#000000;stop-opacity:1;"
         offset="0"
         id="stop3494" />
      <stop
         style="stop-color:#000000;stop-opacity:0;"
         offset="1"
         id="stop3496" />
    </linearGradient>
    <linearGradient
       inkscape:collect="always"
       xlink:href="#linearGradient3492"
       id="linearGradient5394"
       gradientUnits="userSpaceOnUse"
       gradientTransform="translate(9.5092314,-574.55717)"
       x1="117.14286"
       y1="643.79077"
       x2="117.14286"
       y2="943.79077" />
    <linearGradient
       inkscape:collect="always"
       xlink:href="#linearGradient3492"
       id="linearGradient5396"
       gradientUnits="userSpaceOnUse"
       gradientTransform="translate(9.5092314,-574.55717)"
       x1="117.14286"
       y1="643.79077"
       x2="117.14286"
       y2="943.79077" />
    <linearGradient
       inkscape:collect="always"
       xlink:href="#linearGradient3492"
       id="linearGradient5398"
       gradientUnits="userSpaceOnUse"
       gradientTransform="translate(9.5092314,-574.55717)"
       x1="117.14286"
       y1="643.79077"
       x2="117.14286"
       y2="943.79077" />
    <linearGradient
       inkscape:collect="always"
       xlink:href="#linearGradient3492"
       id="linearGradient5400"
       gradientUnits="userSpaceOnUse"
       gradientTransform="translate(9.5092314,-574.55717)"
       x1="117.14286"
       y1="643.79077"
       x2="117.14286"
       y2="943.79077" />
    <linearGradient
       inkscape:collect="always"
       xlink:href="#linearGradient3492"
       id="linearGradient5402"
       gradientUnits="userSpaceOnUse"
       gradientTransform="translate(9.5092314,-574.55717)"
       x1="117.14286"
       y1="643.79077"
       x2="117.14286"
       y2="943.79077" />
    <linearGradient
       inkscape:collect="always"
       xlink:href="#linearGradient3492"
       id="linearGradient5404"
       gradientUnits="userSpaceOnUse"
       gradientTransform="translate(9.5092314,-574.55717)"
       x1="117.14286"
       y1="643.79077"
       x2="117.14286"
       y2="943.79077" />
    <linearGradient
       inkscape:collect="always"
       xlink:href="#linearGradient3492"
       id="linearGradient5406"
       gradientUnits="userSpaceOnUse"
       gradientTransform="translate(9.5092314,-574.55717)"
       x1="117.14286"
       y1="643.79077"
       x2="117.14286"
       y2="943.79077" />
    <linearGradient
       inkscape:collect="always"
       xlink:href="#linearGradient3492"
       id="linearGradient5408"
       gradientUnits="userSpaceOnUse"
       gradientTransform="translate(9.5092314,-574.55717)"
       x1="117.14286"
       y1="643.79077"
       x2="117.14286"
       y2="943.79077" />
    <linearGradient
       inkscape:collect="always"
       xlink:href="#linearGradient3492"
       id="linearGradient5410"
       gradientUnits="userSpaceOnUse"
       gradientTransform="translate(9.5092314,-574.55717)"
       x1="117.14286"
       y1="643.79077"
       x2="117.14286"
       y2="943.79077" />
    <linearGradient
       inkscape:collect="always"
       xlink:href="#linearGradient3492"
       id="linearGradient5412"
       gradientUnits="userSpaceOnUse"
       gradientTransform="translate(9.5092314,-574.55717)"
       x1="117.14286"
       y1="643.79077"
       x2="117.14286"
       y2="943.79077" />
    <linearGradient
       inkscape:collect="always"
       xlink:href="#linearGradient3492"
       id="linearGradient5414"
       gradientUnits="userSpaceOnUse"
       gradientTransform="translate(9.5092314,-574.55717)"
       x1="117.14286"
       y1="643.79077"
       x2="117.14286"
       y2="943.79077" />
    <linearGradient
       inkscape:collect="always"
       xlink:href="#linearGradient3492"
       id="linearGradient5416"
       gradientUnits="userSpaceOnUse"
       gradientTransform="translate(9.5092314,-574.55717)"
       x1="117.14286"
       y1="643.79077"
       x2="117.14286"
       y2="943.79077" />
    <linearGradient
       inkscape:collect="always"
       xlink:href="#linearGradient3492"
       id="linearGradient5418"
       gradientUnits="userSpaceOnUse"
       gradientTransform="translate(9.5092314,-574.55717)"
       x1="117.14286"
       y1="643.79077"
       x2="117.14286"
       y2="943.79077" />
    <linearGradient
       inkscape:collect="always"
       xlink:href="#linearGradient3492"
       id="linearGradient5420"
       gradientUnits="userSpaceOnUse"
       gradientTransform="translate(9.5092314,-574.55717)"
       x1="117.14286"
       y1="643.79077"
       x2="117.14286"
       y2="943.79077" />
    <linearGradient
       inkscape:collect="always"
       xlink:href="#linearGradient3492"
       id="linearGradient5422"
       gradientUnits="userSpaceOnUse"
       gradientTransform="translate(9.5092314,-574.55717)"
       x1="117.14286"
       y1="643.79077"
       x2="117.14286"
       y2="943.79077" />
    <linearGradient
       inkscape:collect="always"
       xlink:href="#linearGradient3492"
       id="linearGradient5424"
       gradientUnits="userSpaceOnUse"
       gradientTransform="translate(9.5092314,-574.55717)"
       x1="117.14286"
       y1="643.79077"
       x2="117.14286"
       y2="943.79077" />
    <linearGradient
       inkscape:collect="always"
       xlink:href="#linearGradient3492"
       id="linearGradient5426"
       gradientUnits="userSpaceOnUse"
       gradientTransform="translate(9.5092314,-574.55717)"
       x1="117.14286"
       y1="643.79077"
       x2="117.14286"
       y2="943.79077" />
    <linearGradient
       inkscape:collect="always"
       xlink:href="#linearGradient3492"
       id="linearGradient5428"
       gradientUnits="userSpaceOnUse"
       gradientTransform="translate(9.5092314,-574.55717)"
       x1="117.14286"
       y1="643.79077"
       x2="117.14286"
       y2="943.79077" />
    <linearGradient
       inkscape:collect="always"
       xlink:href="#linearGradient3492"
       id="linearGradient5430"
       gradientUnits="userSpaceOnUse"
       gradientTransform="translate(9.5092314,-574.55717)"
       x1="117.14286"
       y1="643.79077"
       x2="117.14286"
       y2="943.79077" />
    <linearGradient
       inkscape:collect="always"
       xlink:href="#linearGradient3492"
       id="linearGradient5432"
       gradientUnits="userSpaceOnUse"
       gradientTransform="translate(9.5092314,-574.55717)"
       x1="117.14286"
       y1="643.79077"
       x2="117.14286"
       y2="943.79077" />
    <linearGradient
       inkscape:collect="always"
       xlink:href="#linearGradient3492"
       id="linearGradient5434"
       gradientUnits="userSpaceOnUse"
       gradientTransform="translate(9.5092314,-574.55717)"
       x1="117.14286"
       y1="643.79077"
       x2="117.14286"
       y2="943.79077" />
    <linearGradient
       inkscape:collect="always"
       xlink:href="#linearGradient3492"
       id="linearGradient5436"
       gradientUnits="userSpaceOnUse"
       gradientTransform="translate(9.5092314,-574.55717)"
       x1="117.14286"
       y1="643.79077"
       x2="117.14286"
       y2="943.79077" />
    <linearGradient
       inkscape:collect="always"
       xlink:href="#linearGradient3492"
       id="linearGradient5438"
       gradientUnits="userSpaceOnUse"
       gradientTransform="translate(9.5092314,-574.55717)"
       x1="117.14286"
       y1="643.79077"
       x2="117.14286"
       y2="943.79077" />
    <linearGradient
       inkscape:collect="always"
       xlink:href="#linearGradient3492"
       id="linearGradient5440"
       gradientUnits="userSpaceOnUse"
       gradientTransform="translate(9.5092314,-574.55717)"
       x1="117.14286"
       y1="643.79077"
       x2="117.14286"
       y2="943.79077" />
    <linearGradient
       inkscape:collect="always"
       xlink:href="#linearGradient3492"
       id="linearGradient5442"
       gradientUnits="userSpaceOnUse"
       gradientTransform="translate(9.5092314,-574.55717)"
       x1="117.14286"
       y1="643.79077"
       x2="117.14286"
       y2="943.79077" />
    <linearGradient
       inkscape:collect="always"
       xlink:href="#linearGradient3492"
       id="linearGradient5444"
       gradientUnits="userSpaceOnUse"
       gradientTransform="translate(9.5092314,-574.55717)"
       x1="117.14286"
       y1="643.79077"
       x2="117.14286"
       y2="943.79077" />
    <linearGradient
       inkscape:collect="always"
       xlink:href="#linearGradient3492"
       id="linearGradient5446"
       gradientUnits="userSpaceOnUse"
       gradientTransform="translate(9.5092314,-574.55717)"
       x1="117.14286"
       y1="643.79077"
       x2="117.14286"
       y2="943.79077" />
    <linearGradient
       inkscape:collect="always"
       xlink:href="#linearGradient3492"
       id="linearGradient5448"
       gradientUnits="userSpaceOnUse"
       gradientTransform="translate(9.5092314,-574.55717)"
       x1="117.14286"
       y1="643.79077"
       x2="117.14286"
       y2="943.79077" />
    <linearGradient
       inkscape:collect="always"
       xlink:href="#linearGradient3492"
       id="linearGradient5450"
       gradientUnits="userSpaceOnUse"
       gradientTransform="translate(9.5092314,-574.55717)"
       x1="117.14286"
       y1="643.79077"
       x2="117.14286"
       y2="943.79077" />
    <linearGradient
       inkscape:collect="always"
       xlink:href="#linearGradient3492"
       id="linearGradient5452"
       gradientUnits="userSpaceOnUse"
       gradientTransform="translate(9.5092314,-574.55717)"
       x1="117.14286"
       y1="643.79077"
       x2="117.14286"
       y2="943.79077" />
    <linearGradient
       inkscape:collect="always"
       xlink:href="#linearGradient3492"
       id="linearGradient5454"
       gradientUnits="userSpaceOnUse"
       gradientTransform="translate(9.5092314,-574.55717)"
       x1="117.14286"
       y1="643.79077"
       x2="117.14286"
       y2="943.79077" />
    <linearGradient
       inkscape:collect="always"
       xlink:href="#linearGradient3492"
       id="linearGradient5456"
       gradientUnits="userSpaceOnUse"
       gradientTransform="translate(9.5092314,-574.55717)"
       x1="117.14286"
       y1="643.79077"
       x2="117.14286"
       y2="943.79077" />
    <linearGradient
       inkscape:collect="always"
       xlink:href="#linearGradient3492"
       id="linearGradient5458"
       gradientUnits="userSpaceOnUse"
       gradientTransform="translate(9.5092314,-574.55717)"
       x1="117.14286"
       y1="643.79077"
       x2="117.14286"
       y2="943.79077" />
    <linearGradient
       inkscape:collect="always"
       xlink:href="#linearGradient3492"
       id="linearGradient5460"
       gradientUnits="userSpaceOnUse"
       gradientTransform="translate(9.5092314,-574.55717)"
       x1="117.14286"
       y1="643.79077"
       x2="117.14286"
       y2="943.79077" />
    <linearGradient
       inkscape:collect="always"
       xlink:href="#linearGradient3492"
       id="linearGradient5462"
       gradientUnits="userSpaceOnUse"
       gradientTransform="translate(9.5092314,-574.55717)"
       x1="117.14286"
       y1="643.79077"
       x2="117.14286"
       y2="943.79077" />
    <linearGradient
       inkscape:collect="always"
       xlink:href="#linearGradient3492"
       id="linearGradient5464"
       gradientUnits="userSpaceOnUse"
       gradientTransform="translate(9.5092314,-574.55717)"
       x1="117.14286"
       y1="643.79077"
       x2="117.14286"
       y2="943.79077" />
    <linearGradient
       inkscape:collect="always"
       xlink:href="#linearGradient3492"
       id="linearGradient5466"
       gradientUnits="userSpaceOnUse"
       gradientTransform="translate(9.5092314,-574.55717)"
       x1="117.14286"
       y1="643.79077"
       x2="117.14286"
       y2="943.79077" />
    <linearGradient
       inkscape:collect="always"
       xlink:href="#linearGradient3492"
       id="linearGradient5468"
       gradientUnits="userSpaceOnUse"
       gradientTransform="translate(9.5092314,-574.55717)"
       x1="117.14286"
       y1="643.79077"
       x2="117.14286"
       y2="943.79077" />
    <linearGradient
       inkscape:collect="always"
       xlink:href="#linearGradient3492"
       id="linearGradient5470"
       gradientUnits="userSpaceOnUse"
       gradientTransform="translate(9.5092314,-574.55717)"
       x1="117.14286"
       y1="643.79077"
       x2="117.14286"
       y2="943.79077" />
    <linearGradient
       inkscape:collect="always"
       xlink:href="#linearGradient3492"
       id="linearGradient5472"
       gradientUnits="userSpaceOnUse"
       gradientTransform="translate(9.5092314,-574.55717)"
       x1="117.14286"
       y1="643.79077"
       x2="117.14286"
       y2="943.79077" />
    <linearGradient
       inkscape:collect="always"
       xlink:href="#linearGradient3492"
       id="linearGradient5474"
       gradientUnits="userSpaceOnUse"
       gradientTransform="translate(9.5092314,-574.55717)"
       x1="117.14286"
       y1="643.79077"
       x2="117.14286"
       y2="943.79077" />
    <linearGradient
       inkscape:collect="always"
       xlink:href="#linearGradient3492"
       id="linearGradient5476"
       gradientUnits="userSpaceOnUse"
       gradientTransform="translate(9.5092314,-574.55717)"
       x1="117.14286"
       y1="643.79077"
       x2="117.14286"
       y2="943.79077" />
  </defs>
  <sodipodi:namedview
     id="base"
     pagecolor="#ffffff"
     bordercolor="#666666"
     borderopacity="1.0"
     inkscape:pageopacity="0.0"
     inkscape:pageshadow="2"
     inkscape:zoom="0.98994949"
     inkscape:cx="234.24006"
     inkscape:cy="-31.841531"
     inkscape:document-units="px"
     inkscape:current-layer="layer1"
     showgrid="false"
     inkscape:window-width="1855"
     inkscape:window-height="1056"
     inkscape:window-x="65"
     inkscape:window-y="24"
     inkscape:window-maximized="1"
     fit-margin-top="0"
     fit-margin-left="0"
     fit-margin-right="0"
     fit-margin-bottom="0" />
  <metadata
     id="metadata4581">
    <rdf:RDF>
      <cc:Work
         rdf:about="">
        <dc:format>image/svg+xml</dc:format>
        <dc:type
           rdf:resource="http://purl.org/dc/dcmitype/StillImage" />
        <dc:title></dc:title>
      </cc:Work>
    </rdf:RDF>
  </metadata>
  <g
     inkscape:label="Layer 1"
     inkscape:groupmode="layer"
     id="layer1"
     transform="translate(-19.811264,-11.946633)">
    <path
       style="fill:url(#linearGradient5394);fill-opacity:1"
       d="m 141.60386,274.77248 c 4.91965,-6.09337 5.65251,-5.69658 2.96268,-11.61618 -3.0291,-6.66624 -3.22034,-6.09982 -7.6265,-1.54362 -5.44153,5.62683 -7.40923,19.73652 -2.20507,19.73652 1.74299,0 3.10982,-1.92081 6.86889,-6.57672 z"
       id="path3513-3"
       inkscape:connector-curvature="0"
       sodipodi:nodetypes="sssss" />
    <path
       style="fill:url(#linearGradient5396);fill-opacity:1"
       d="m 150.16162,276.21422 c 0.27698,-5.47684 -0.69813,-6.30333 8.02141,-14.66897 5.92441,-5.68394 7.0642,-7.17074 9.73668,0.72338 1.07645,3.17966 1.10241,4.29889 -7.90597,13.05811 -6.94618,6.75406 -10.11998,6.184 -9.85212,0.88748 z"
       id="path3509"
       inkscape:connector-curvature="0"
       sodipodi:nodetypes="sssss" />
    <path
       style="fill:url(#linearGradient5398);fill-opacity:1"
       d="m 147.33182,255.88654 c -1.38731,-4.70006 -1.04468,-6.05729 4.49336,-11.49716 6.13681,-6.02803 7.77575,-7.73869 9.96555,-2.65026 2.99771,6.96572 3.66963,4.92176 -3.78534,12.88611 -8.15433,8.7115 -8.45451,8.77923 -10.67357,1.26131 z"
       id="path3499"
       inkscape:connector-curvature="0"
       sodipodi:nodetypes="sssss" />
    <path
       style="fill:url(#linearGradient5400);fill-opacity:1"
       d="m 172.83512,256.1806 c -1.75025,-5.96713 -0.65303,-6.70332 3.32745,-9.63607 8.98638,-6.62101 11.39773,-10.77201 13.97713,-2.65531 2.40613,7.57144 0.91021,6.79855 -7.62064,12.57599 -5.92996,3.68919 -7.70186,6.11715 -9.68394,-0.28461 z"
       id="path3497"
       inkscape:connector-curvature="0"
       sodipodi:nodetypes="csscc" />
    <path
       style="fill:url(#linearGradient5402);fill-opacity:1"
       d="m 205.61614,240.7735 c -5.48848,3.03733 -8.48056,4.99018 -10.28893,-0.12197 -2.38763,-6.74971 -2.11044,-7.44277 2.37838,-10.20035 10.06619,-5.76805 13.07953,-7.99277 14.42438,-0.22314 1.14806,7.32663 0.39893,5.92417 -6.51383,10.54546 z"
       id="path3495"
       inkscape:connector-curvature="0"
       sodipodi:nodetypes="csccc" />
    <path
       style="fill:url(#linearGradient5404);fill-opacity:1"
       d="m 138.35395,236.13769 c -4.11692,-6.64917 -4.39981,-7.2902 2.78481,-14.82738 5.95154,-6.2436 6.9197,-5.53112 10.40402,0.77368 2.56665,4.64429 2.3866,5.84031 -2.97401,11.30645 -5.74913,5.8623 -6.20698,9.22024 -10.21482,2.74725 z"
       id="path3489"
       inkscape:connector-curvature="0"
       sodipodi:nodetypes="sssss" />
    <path
       style="fill:url(#linearGradient5406);fill-opacity:1"
       d="m 165.69667,235.24983 c -1.47719,-4.216 -1.92842,-5.5631 4.91476,-11.78912 7.61565,-6.92883 10.00031,-8.44884 12.07635,-2.21358 2.92202,8.77609 4.79613,6.39885 -3.64391,13.80943 -7.94604,6.97684 -10.34294,8.76767 -13.3472,0.19327 z"
       id="path3487"
       inkscape:connector-curvature="0"
       sodipodi:nodetypes="sssss" />
    <path
       style="fill:url(#linearGradient5408);fill-opacity:1"
       d="m 186.9311,217.28741 c -2.44815,-6.33481 -1.51853,-8.01666 5.59627,-12.88298 8.04092,-5.49975 11.51354,-7.86722 13.76236,0.0723 1.875,6.61975 4.04895,7.15493 -5.25383,13.39683 -9.93128,6.6636 -11.60484,5.88268 -14.1048,-0.58618 z"
       id="path3481"
       inkscape:connector-curvature="0"
       sodipodi:nodetypes="sssss" />
    <path
       style="fill:url(#linearGradient5410);fill-opacity:1"
       d="m 212.31038,199.06318 c -1.58451,-6.58003 -0.39503,-6.34746 10.1164,-12.73958 5.5743,-3.38981 7.75432,-7.12526 9.88709,1.93897 2.05472,8.73255 1.00653,9.3078 -7.30736,13.6973 -11.17878,5.90208 -10.34253,6.87711 -12.69613,-2.89669 z"
       id="path3469"
       inkscape:connector-curvature="0"
       sodipodi:nodetypes="sssss" />
    <path
       style="fill:url(#linearGradient5412);fill-opacity:1"
       d="m 140.80861,189.76023 c -5.53821,-9.07069 -8.00023,-9.1465 0.59676,-19.48209 7.93526,-9.54003 8.1652,-9.27253 14.34655,0.70787 5.60157,9.0443 4.95442,9.66416 -2.88561,17.71434 -6.89487,7.07967 -6.78174,9.70105 -12.0577,1.05988 z"
       id="path3437"
       inkscape:connector-curvature="0"
       sodipodi:nodetypes="sssss" />
    <path
       style="fill:url(#linearGradient5414);fill-opacity:1"
       d="m 162.02684,162.25814 c -4.4193,-9.04373 -4.2551,-8.23209 4.09763,-16.15121 9.42563,-8.93633 9.82199,-5.58456 13.0633,1.04852 3.24194,6.63436 5.47524,8.49989 -2.21369,15.87058 -9.42848,9.03824 -10.08341,9.18555 -14.94724,-0.76789 z"
       id="path3429"
       inkscape:connector-curvature="0"
       sodipodi:nodetypes="sssss" />
    <path
       style="fill:url(#linearGradient5416);fill-opacity:1"
       d="m 184.96733,137.41975 c -3.62353,-8.12749 -1.06321,-9.76437 4.85929,-15.01673 10.437,-9.25602 12.56716,-9.035 17.06242,1.77037 3.09005,7.42762 2.31073,10.09989 -4.6137,15.82029 -10.98584,9.07561 -12.87671,7.36536 -17.30801,-2.57393 z"
       id="path3423"
       inkscape:connector-curvature="0"
       sodipodi:nodetypes="sssss" />
    <path
       style="fill:url(#linearGradient5418);fill-opacity:1"
       d="m 141.72679,133.47057 c -5.19408,-8.68191 -4.89083,-8.72002 0.8981,-14.68387 10.04035,-10.34372 9.97414,-10.58842 16.05333,-1.95897 6.06536,8.60982 6.13191,11.12404 0.0387,17.20027 -9.63078,9.60387 -10.15249,10.87161 -16.99008,-0.55743 z"
       id="path3419"
       inkscape:connector-curvature="0"
       sodipodi:nodetypes="sssss" />
    <path
       style="fill:url(#linearGradient5420);fill-opacity:1"
       d="m 165.07779,106.6826 c -4.35697,-7.640864 -4.05735,-9.426644 3.64538,-15.726634 13.90854,-11.37567 12.03263,-9.89562 18.9467,1.54239 3.67106,6.07307 4.18112,7.838894 -5.03044,15.732544 -10.22986,8.76627 -11.46367,9.14578 -17.56164,-1.5483 z"
       id="path3413"
       inkscape:connector-curvature="0"
       sodipodi:nodetypes="sssss" />
    <path
       inkscape:connector-curvature="0"
       style="fill:url(#linearGradient5422);fill-opacity:1"
       d="m 119.35069,103.23133 c -6.48025,-7.842374 -6.44816,-8.272554 1.24593,-16.699204 l 7.89753,-8.64946 7.89753,8.64946 c 7.69409,8.42665 7.72618,8.85683 1.24593,16.699204 -3.65839,4.42735 -7.77294,8.04974 -9.14346,8.04974 -1.37052,0 -5.48507,-3.62239 -9.14346,-8.04974 z"
       id="path3411" />
    <path
       style="fill:url(#linearGradient5424);fill-opacity:1"
       d="m 141.75261,74.187626 c -5.54645,-6.59753 -5.06329,-9.94158 3.15808,-18.44832 10.73736,-11.11006 8.37846,-11.71037 16.04682,-1.84431 11.02563,14.1855 11.30744,12.83159 0.15122,22.90241 -9.34501,8.43583 -10.46765,7.96309 -19.35612,-2.60978 z"
       id="path3407"
       inkscape:connector-curvature="0"
       sodipodi:nodetypes="sssss" />
    <path
       style="fill:url(#linearGradient5426);fill-opacity:1"
       d="m 118.01758,43.726936 c -9.67125,-9.65813 -7.94042,-11.23504 -1.0133,-19.14303 14.7268,-16.8121403 5.36893,-16.7647603 20.53545,-0.3652 5.88767,7.02771 8.51039,8.50367 -2.01146,19.31757 l -8.42773,9.2613 z"
       id="path3375"
       inkscape:connector-curvature="0"
       sodipodi:nodetypes="sscccs" />
    <path
       inkscape:connector-curvature="0"
       style="fill:url(#linearGradient5428);fill-opacity:1"
       d="m 217.48257,172.32051 c 8.63598,-5.96567 8.18762,-9.13001 5.91755,-15.1858 -3.76825,-10.05241 -4.22111,-10.64029 -15.25708,-1.34514 -6.32079,5.32374 -8.79707,4.48789 -5.36203,13.76805 3.68899,9.96624 3.67776,10.37804 14.70156,2.76289 z"
       id="path3435-6"
       sodipodi:nodetypes="sssss" />
    <path
       inkscape:connector-curvature="0"
       style="fill:url(#linearGradient5430);fill-opacity:1"
       d="m 168.65945,210.78952 c 7.10293,-6.24131 7.46952,-6.31373 2.94967,-13.84938 -4.91118,-8.1881 -6.36805,-5.84378 -13.92759,2.31745 -4.69838,5.07234 -5.76315,6.36115 -2.5602,12.15295 3.8223,6.91177 4.62054,7.21481 13.53812,-0.62102 z"
       id="path3477-7"
       sodipodi:nodetypes="sssss" />
    <path
       inkscape:connector-curvature="0"
       style="fill:url(#linearGradient5432);fill-opacity:1"
       d="m 192.82215,190.30013 c 7.20844,-6.39279 7.04809,-6.67165 3.92628,-13.30704 -4.10314,-8.72119 -5.59799,-8.71471 -15.5724,0.0963 -5.75672,5.08526 -7.08343,7.7155 -4.71713,13.00268 4.4529,9.9494 5.62871,9.72796 16.36325,0.20806 z"
       id="path3467-5"
       sodipodi:nodetypes="sssss" />
    <path
       style="fill:url(#linearGradient5434);fill-opacity:1"
       d="m 237.10643,219.04379 c 0.19352,7.65141 -2.41636,7.49808 -7.3963,9.49973 -5.8203,2.33942 -9.70343,5.85269 -11.13043,-0.38456 -1.70107,-7.43515 -2.95922,-7.09569 4.46946,-10.78497 11.84782,-5.05404 13.87113,-5.91878 14.05727,1.66978 z"
       id="path3495-3"
       inkscape:connector-curvature="0"
       sodipodi:nodetypes="cssccc" />
    <path
       inkscape:connector-curvature="0"
       style="fill:url(#linearGradient5436);fill-opacity:1"
       d="m 120.01773,162.25804 c -6.0075,-7.48657 -5.97775,-7.89723 1.15503,-15.94158 8.28004,-9.9994 5.76814,-10.00881 14.64277,0 7.13279,8.04435 7.16254,8.45501 1.15504,15.94158 -3.3915,4.22649 -7.20589,7.68454 -8.47642,7.68454 -1.27054,0 -5.08492,-3.45805 -8.47642,-7.68454 z"
       id="path3411-5"
       sodipodi:nodetypes="sccsss" />
    <path
       inkscape:connector-curvature="0"
       style="fill:url(#linearGradient5438);fill-opacity:1"
       d="m 120.96107,210.60021 c -5.33893,-6.45585 -5.31249,-6.80998 1.02648,-13.74682 6.28527,-7.23377 6.3889,-7.30502 13.01319,0 6.33898,6.93684 6.36542,7.29097 1.02649,13.74682 -3.01406,3.64461 -6.40395,6.62657 -7.53308,6.62657 -1.12914,0 -4.51902,-2.98196 -7.53308,-6.62657 z"
       id="path3411-5-6"
       sodipodi:nodetypes="sccsss" />
    <path
       inkscape:connector-curvature="0"
       style="fill:url(#linearGradient5440);fill-opacity:1"
       d="m 122.72982,254.06328 c -4.08535,-4.99568 -4.06512,-5.26971 0.78547,-10.63757 3.61047,-5.09409 5.43781,-4.46903 9.95771,0 4.8506,5.36786 4.87083,5.64189 0.78547,10.63757 -2.30636,2.82027 -4.90031,5.12778 -5.76432,5.12778 -0.86402,0 -3.45796,-2.30751 -5.76433,-5.12778 z"
       id="path3411-5-6-2"
       sodipodi:nodetypes="sccsss" />
    <path
       style="fill:url(#linearGradient5442);fill-opacity:1"
       d="m 115.32385,274.75271 c -4.91964,-6.09337 -5.6525,-5.69658 -2.96267,-11.61618 3.02909,-6.66624 3.22033,-6.09982 7.62649,-1.54362 5.44153,5.62683 7.40923,19.73652 2.20507,19.73652 -1.74299,0 -3.10982,-1.92081 -6.86889,-6.57672 z"
       id="path3513-3-9"
       inkscape:connector-curvature="0"
       sodipodi:nodetypes="sssss" />
    <path
       style="fill:url(#linearGradient5444);fill-opacity:1"
       d="m 106.7661,276.19445 c -0.27698,-5.47684 0.69813,-6.30333 -8.021409,-14.66897 -5.92441,-5.68394 -7.0642,-7.17074 -9.73668,0.72338 -1.07645,3.17966 -1.10241,4.29889 7.90597,13.05811 6.946179,6.75406 10.119979,6.184 9.852119,0.88748 z"
       id="path3509-1"
       inkscape:connector-curvature="0"
       sodipodi:nodetypes="sssss" />
    <path
       style="fill:url(#linearGradient5446);fill-opacity:1"
       d="m 109.5959,255.86677 c 1.38731,-4.70006 1.04468,-6.05729 -4.49336,-11.49716 -6.136809,-6.02803 -7.775749,-7.73869 -9.965549,-2.65026 -2.99771,6.96572 -3.66963,4.92176 3.78534,12.88611 8.154329,8.7115 8.454509,8.77923 10.673569,1.26131 z"
       id="path3499-2"
       inkscape:connector-curvature="0"
       sodipodi:nodetypes="sssss" />
    <path
       style="fill:url(#linearGradient5448);fill-opacity:1"
       d="m 84.092601,256.16083 c 1.75025,-5.96713 0.65303,-6.70332 -3.32745,-9.63607 -8.98638,-6.62101 -11.39773,-10.77201 -13.97713,-2.65531 -2.40613,7.57144 -0.91021,6.79855 7.62064,12.57599 5.92996,3.68919 7.70186,6.11715 9.68394,-0.28461 z"
       id="path3497-7"
       inkscape:connector-curvature="0"
       sodipodi:nodetypes="csscc" />
    <path
       style="fill:url(#linearGradient5450);fill-opacity:1"
       d="m 51.311581,240.75373 c 5.48848,3.03733 8.48056,4.99018 10.28893,-0.12197 2.38763,-6.74971 2.11044,-7.44277 -2.37838,-10.20035 -10.06619,-5.76805 -13.07953,-7.99277 -14.42437,-0.22314 -1.14806,7.32663 -0.39893,5.92417 6.51382,10.54546 z"
       id="path3495-0"
       inkscape:connector-curvature="0"
       sodipodi:nodetypes="csccc" />
    <path
       style="fill:url(#linearGradient5452);fill-opacity:1"
       d="m 118.57376,236.11792 c 4.11692,-6.64917 4.39981,-7.2902 -2.78481,-14.82738 -5.95153,-6.2436 -6.91969,-5.53112 -10.40401,0.77368 -2.56665,4.64429 -2.3866,5.84031 2.97401,11.30645 5.74912,5.8623 6.20697,9.22024 10.21481,2.74725 z"
       id="path3489-9"
       inkscape:connector-curvature="0"
       sodipodi:nodetypes="sssss" />
    <path
       style="fill:url(#linearGradient5454);fill-opacity:1"
       d="m 91.231051,235.23006 c 1.47719,-4.216 1.92842,-5.5631 -4.91476,-11.78912 -7.61565,-6.92883 -10.00031,-8.44884 -12.07635,-2.21358 -2.92202,8.77609 -4.79613,6.39885 3.64391,13.80943 7.94604,6.97684 10.34294,8.76767 13.3472,0.19327 z"
       id="path3487-3"
       inkscape:connector-curvature="0"
       sodipodi:nodetypes="sssss" />
    <path
       style="fill:url(#linearGradient5456);fill-opacity:1"
       d="m 69.996621,217.26764 c 2.44815,-6.33481 1.51853,-8.01666 -5.59627,-12.88298 -8.04092,-5.49975 -11.51354,-7.86722 -13.76236,0.0723 -1.875,6.61975 -4.04895,7.15493 5.25383,13.39683 9.93128,6.6636 11.60484,5.88268 14.1048,-0.58618 z"
       id="path3481-6"
       inkscape:connector-curvature="0"
       sodipodi:nodetypes="sssss" />
    <path
       style="fill:url(#linearGradient5458);fill-opacity:1"
       d="m 44.617351,199.04341 c 1.5845,-6.58003 0.39503,-6.34746 -10.1164,-12.73958 -5.5743,-3.38981 -7.75432,-7.12526 -9.88709,1.93897 -2.05472,8.73255 -1.00653,9.3078 7.30736,13.6973 11.17878,5.90208 10.34253,6.87711 12.69613,-2.89669 z"
       id="path3469-0"
       inkscape:connector-curvature="0"
       sodipodi:nodetypes="sssss" />
    <path
       style="fill:url(#linearGradient5460);fill-opacity:1"
       d="m 116.1191,189.74046 c 5.53821,-9.07069 7.34722,-10.04122 -0.59676,-19.48209 -7.98934,-9.49477 -8.16519,-9.27253 -14.34654,0.70787 -5.601569,9.0443 -4.954419,9.66416 2.88561,17.71434 6.89487,7.07967 6.78174,9.70105 12.05769,1.05988 z"
       id="path3437-6"
       inkscape:connector-curvature="0"
       sodipodi:nodetypes="sssss" />
    <path
       style="fill:url(#linearGradient5462);fill-opacity:1"
       d="m 94.900881,162.23837 c 4.4193,-9.04373 4.2551,-8.23209 -4.09763,-16.1512 -9.42563,-8.93633 -9.82199,-5.58456 -13.0633,1.04851 -3.24194,6.63436 -5.47524,8.49989 2.21369,15.87058 9.42848,9.03824 10.08341,9.18555 14.94724,-0.76789 z"
       id="path3429-2"
       inkscape:connector-curvature="0"
       sodipodi:nodetypes="sssss" />
    <path
       style="fill:url(#linearGradient5464);fill-opacity:1"
       d="m 71.960391,137.39999 c 3.62353,-8.12749 1.06321,-9.76437 -4.85929,-15.01673 -10.437,-9.25602 -12.56716,-9.035 -17.06242,1.77037 -3.09005,7.42762 -2.31073,10.09989 4.6137,15.82029 10.98584,9.0756 12.87671,7.36535 17.30801,-2.57393 z"
       id="path3423-6"
       inkscape:connector-curvature="0"
       sodipodi:nodetypes="sssss" />
    <path
       style="fill:url(#linearGradient5466);fill-opacity:1"
       d="m 115.20092,133.45081 c 5.19408,-8.68191 4.89083,-8.72002 -0.8981,-14.68387 -10.04034,-10.34372 -9.97413,-10.58842 -16.053319,-1.95897 -6.06536,8.60982 -6.13191,11.12404 -0.0387,17.20027 9.630779,9.60387 10.152489,10.87161 16.990069,-0.55743 z"
       id="path3419-1"
       inkscape:connector-curvature="0"
       sodipodi:nodetypes="sssss" />
    <path
       style="fill:url(#linearGradient5468);fill-opacity:1"
       d="m 91.849931,106.66284 c 4.35697,-7.640864 4.05735,-9.426644 -3.64538,-15.726634 -13.90854,-11.37567 -12.03263,-9.89562 -18.9467,1.54239 -3.67106,6.07307 -4.18112,7.838894 5.03044,15.732544 10.22986,8.76627 11.46367,9.14578 17.56164,-1.5483 z"
       id="path3413-8"
       inkscape:connector-curvature="0"
       sodipodi:nodetypes="sssss" />
    <path
       style="fill:url(#linearGradient5470);fill-opacity:1"
       d="m 115.1751,74.167866 c 5.54645,-6.59753 5.06329,-9.94158 -3.15807,-18.44833 -10.73736,-11.11006 -8.37846,-11.71037 -16.046819,-1.84431 -11.02563,14.18551 -11.30744,12.8316 -0.15122,22.90242 9.345009,8.43583 10.467649,7.96309 19.356109,-2.60978 z"
       id="path3407-7"
       inkscape:connector-curvature="0"
       sodipodi:nodetypes="sssss" />
    <path
       inkscape:connector-curvature="0"
       style="fill:url(#linearGradient5472);fill-opacity:1"
       d="m 39.445161,172.30074 c -8.63598,-5.96567 -8.18762,-9.13001 -5.91755,-15.1858 3.76825,-10.05241 4.22111,-10.64028 15.25707,-1.34514 6.32079,5.32374 8.79707,4.48789 5.36203,13.76805 -3.68899,9.96624 -3.67776,10.37804 -14.70155,2.76289 z"
       id="path3435-6-9"
       sodipodi:nodetypes="sssss" />
    <path
       inkscape:connector-curvature="0"
       style="fill:url(#linearGradient5474);fill-opacity:1"
       d="m 88.268271,210.76975 c -7.10293,-6.24131 -7.46952,-6.31373 -2.94967,-13.84938 4.91118,-8.1881 6.36805,-5.84378 13.92759,2.31745 4.698379,5.07234 5.763149,6.36115 2.560199,12.15295 -3.822299,6.91177 -4.620539,7.21481 -13.538119,-0.62102 z"
       id="path3477-7-2"
       sodipodi:nodetypes="sssss" />
    <path
       inkscape:connector-curvature="0"
       style="fill:url(#linearGradient5476);fill-opacity:1"
       d="m 64.105571,190.28036 c -7.20844,-6.39279 -7.04809,-6.67165 -3.92628,-13.30704 4.10314,-8.72119 5.59799,-8.71471 15.5724,0.0963 5.75672,5.08526 7.08343,7.7155 4.71713,13.00268 -4.4529,9.9494 -5.62871,9.72796 -16.36325,0.20806 z"
       id="path3467-5-0"
       sodipodi:nodetypes="sssss" />
    <path
       style="fill:url(#linearGradient3498);fill-opacity:1"
       d="m 19.821301,219.02402 c -0.19352,7.65141 2.41636,7.49808 7.3963,9.49973 5.8203,2.33942 9.70343,5.85269 11.13043,-0.38456 1.70107,-7.43515 2.95922,-7.09569 -4.46946,-10.78497 -11.84782,-5.05404 -13.87113,-5.91878 -14.05727,1.66978 z"
       id="path3495-3-2"
       inkscape:connector-curvature="0"
       sodipodi:nodetypes="cssccc" />
    <text
       xml:space="preserve"
       style="font-style:normal;font-weight:normal;font-size:58.5801239px;line-height:125%;font-family:sans-serif;letter-spacing:0px;word-spacing:0px;fill:#000000;fill-opacity:1;stroke:none;stroke-width:1px;stroke-linecap:butt;stroke-linejoin:miter;stroke-opacity:1"
       x="276.20667"
       y="194.18289"
       id="text3829"
       sodipodi:linespacing="125%"
       transform="scale(0.97711527,1.0234207)"><tspan
         sodipodi:role="line"
         id="tspan3831"
         x="276.20667"
         y="194.18289"
         style="font-style:normal;font-variant:normal;font-weight:200;font-stretch:normal;font-size:117.1602478px;font-family:'Woodford Bourne';-inkscape-font-specification:'Woodford Bourne Ultra-Light';letter-spacing:8.78701878px;fill:#0072e2;fill-opacity:1">bitcaster</tspan></text>
  </g>
</svg>
